# xmcd
#
# Track frame offsets:
#	150
#	10455
#	32670
#	50117
#	66317
#	85332
#	102040
#	129160
#	154920
#	157052
#	177085
#	192687
#	210017
#
# Disc length: 3100 seconds
#
# Revision: 0
# Processed by: cddbd v1.4PL0 Copyright (c) Steve Scherf et al.
# Submitted via: dBpowerAMP V4.0
#
DISCID=ad0c1a0d
DTITLE=Force Field - Strong Signals
DYEAR=1991
DGENRE=Blues
TTITLE0=Real Cool Daddy
TTITLE1=Nothin' to Prove
TTITLE2=Let it Roll
TTITLE3=Word for Love
TTITLE4=New Way to Get the Blues
TTITLE5=I Declare
TTITLE6=Remember When
TTITLE7=Queen Bee
TTITLE8=Truckin' My Blues Away
TTITLE9=Overtime Lovin'
TTITLE10=Fool Me Twice Blues
TTITLE11=Strong Signals
TTITLE12=Backfired
EXTD=
EXTT0=
EXTT1=
EXTT2=
EXTT3=
EXTT4=
EXTT5=
EXTT6=
EXTT7=
EXTT8=
EXTT9=
EXTT10=
EXTT11=
EXTT12=
PLAYORDER=
